<?xml version="1.0" encoding="UTF-8"?>
<svg width="184px" height="184px" viewBox="0 0 184 184" version="1.1" xmlns="http://www.w3.org/2000/svg" xmlns:xlink="http://www.w3.org/1999/xlink">
    <title>Graphical/Dots</title>
    <defs>
        <path d="M1,180 C1.55228475,180 2,180.447715 2,181 C2,181.552285 1.55228475,182 1,182 C0.44771525,182 0,181.552285 0,181 C0,180.447715 0.44771525,180 1,180 Z M21,180 C21.5522847,180 22,180.447715 22,181 C22,181.552285 21.5522847,182 21,182 C20.4477153,182 20,181.552285 20,181 C20,180.447715 20.4477153,180 21,180 Z M41,180 C41.5522847,180 42,180.447715 42,181 C42,181.552285 41.5522847,182 41,182 C40.4477153,182 40,181.552285 40,181 C40,180.447715 40.4477153,180 41,180 Z M61,180 C61.5522847,180 62,180.447715 62,181 C62,181.552285 61.5522847,182 61,182 C60.4477153,182 60,181.552285 60,181 C60,180.447715 60.4477153,180 61,180 Z M81,180 C81.5522847,180 82,180.447715 82,181 C82,181.552285 81.5522847,182 81,182 C80.4477153,182 80,181.552285 80,181 C80,180.447715 80.4477153,180 81,180 Z M101,180 C101.552285,180 102,180.447715 102,181 C102,181.552285 101.552285,182 101,182 C100.447715,182 100,181.552285 100,181 C100,180.447715 100.447715,180 101,180 Z M121,180 C121.552285,180 122,180.447715 122,181 C122,181.552285 121.552285,182 121,182 C120.447715,182 120,181.552285 120,181 C120,180.447715 120.447715,180 121,180 Z M141,180 C141.552285,180 142,180.447715 142,181 C142,181.552285 141.552285,182 141,182 C140.447715,182 140,181.552285 140,181 C140,180.447715 140.447715,180 141,180 Z M161,180 C161.552285,180 162,180.447715 162,181 C162,181.552285 161.552285,182 161,182 C160.447715,182 160,181.552285 160,181 C160,180.447715 160.447715,180 161,180 Z M181,180 C181.552285,180 182,180.447715 182,181 C182,181.552285 181.552285,182 181,182 C180.447715,182 180,181.552285 180,181 C180,180.447715 180.447715,180 181,180 Z M1,160 C1.55228475,160 2,160.447715 2,161 C2,161.552285 1.55228475,162 1,162 C0.44771525,162 0,161.552285 0,161 C0,160.447715 0.44771525,160 1,160 Z M101,160 C101.552285,160 102,160.447715 102,161 C102,161.552285 101.552285,162 101,162 C100.447715,162 100,161.552285 100,161 C100,160.447715 100.447715,160 101,160 Z M21,160 C21.5522847,160 22,160.447715 22,161 C22,161.552285 21.5522847,162 21,162 C20.4477153,162 20,161.552285 20,161 C20,160.447715 20.4477153,160 21,160 Z M121,160 C121.552285,160 122,160.447715 122,161 C122,161.552285 121.552285,162 121,162 C120.447715,162 120,161.552285 120,161 C120,160.447715 120.447715,160 121,160 Z M141,160 C141.552285,160 142,160.447715 142,161 C142,161.552285 141.552285,162 141,162 C140.447715,162 140,161.552285 140,161 C140,160.447715 140.447715,160 141,160 Z M41,160 C41.5522847,160 42,160.447715 42,161 C42,161.552285 41.5522847,162 41,162 C40.4477153,162 40,161.552285 40,161 C40,160.447715 40.4477153,160 41,160 Z M161,160 C161.552285,160 162,160.447715 162,161 C162,161.552285 161.552285,162 161,162 C160.447715,162 160,161.552285 160,161 C160,160.447715 160.447715,160 161,160 Z M61,160 C61.5522847,160 62,160.447715 62,161 C62,161.552285 61.5522847,162 61,162 C60.4477153,162 60,161.552285 60,161 C60,160.447715 60.4477153,160 61,160 Z M181,160 C181.552285,160 182,160.447715 182,161 C182,161.552285 181.552285,162 181,162 C180.447715,162 180,161.552285 180,161 C180,160.447715 180.447715,160 181,160 Z M81,160 C81.5522847,160 82,160.447715 82,161 C82,161.552285 81.5522847,162 81,162 C80.4477153,162 80,161.552285 80,161 C80,160.447715 80.4477153,160 81,160 Z M21,140 C21.5522847,140 22,140.447715 22,141 C22,141.552285 21.5522847,142 21,142 C20.4477153,142 20,141.552285 20,141 C20,140.447715 20.4477153,140 21,140 Z M101,140 C101.552285,140 102,140.447715 102,141 C102,141.552285 101.552285,142 101,142 C100.447715,142 100,141.552285 100,141 C100,140.447715 100.447715,140 101,140 Z M61,140 C61.5522847,140 62,140.447715 62,141 C62,141.552285 61.5522847,142 61,142 C60.4477153,142 60,141.552285 60,141 C60,140.447715 60.4477153,140 61,140 Z M1,140 C1.55228475,140 2,140.447715 2,141 C2,141.552285 1.55228475,142 1,142 C0.44771525,142 0,141.552285 0,141 C0,140.447715 0.44771525,140 1,140 Z M141,140 C141.552285,140 142,140.447715 142,141 C142,141.552285 141.552285,142 141,142 C140.447715,142 140,141.552285 140,141 C140,140.447715 140.447715,140 141,140 Z M121,140 C121.552285,140 122,140.447715 122,141 C122,141.552285 121.552285,142 121,142 C120.447715,142 120,141.552285 120,141 C120,140.447715 120.447715,140 121,140 Z M41,140 C41.5522847,140 42,140.447715 42,141 C42,141.552285 41.5522847,142 41,142 C40.4477153,142 40,141.552285 40,141 C40,140.447715 40.4477153,140 41,140 Z M161,140 C161.552285,140 162,140.447715 162,141 C162,141.552285 161.552285,142 161,142 C160.447715,142 160,141.552285 160,141 C160,140.447715 160.447715,140 161,140 Z M181,140 C181.552285,140 182,140.447715 182,141 C182,141.552285 181.552285,142 181,142 C180.447715,142 180,141.552285 180,141 C180,140.447715 180.447715,140 181,140 Z M81,140 C81.5522847,140 82,140.447715 82,141 C82,141.552285 81.5522847,142 81,142 C80.4477153,142 80,141.552285 80,141 C80,140.447715 80.4477153,140 81,140 Z M1,120 C1.55228475,120 2,120.447715 2,121 C2,121.552285 1.55228475,122 1,122 C0.44771525,122 0,121.552285 0,121 C0,120.447715 0.44771525,120 1,120 Z M21,120 C21.5522847,120 22,120.447715 22,121 C22,121.552285 21.5522847,122 21,122 C20.4477153,122 20,121.552285 20,121 C20,120.447715 20.4477153,120 21,120 Z M41,120 C41.5522847,120 42,120.447715 42,121 C42,121.552285 41.5522847,122 41,122 C40.4477153,122 40,121.552285 40,121 C40,120.447715 40.4477153,120 41,120 Z M121,120 C121.552285,120 122,120.447715 122,121 C122,121.552285 121.552285,122 121,122 C120.447715,122 120,121.552285 120,121 C120,120.447715 120.447715,120 121,120 Z M141,120 C141.552285,120 142,120.447715 142,121 C142,121.552285 141.552285,122 141,122 C140.447715,122 140,121.552285 140,121 C140,120.447715 140.447715,120 141,120 Z M81,120 C81.5522847,120 82,120.447715 82,121 C82,121.552285 81.5522847,122 81,122 C80.4477153,122 80,121.552285 80,121 C80,120.447715 80.4477153,120 81,120 Z M161,120 C161.552285,120 162,120.447715 162,121 C162,121.552285 161.552285,122 161,122 C160.447715,122 160,121.552285 160,121 C160,120.447715 160.447715,120 161,120 Z M101,120 C101.552285,120 102,120.447715 102,121 C102,121.552285 101.552285,122 101,122 C100.447715,122 100,121.552285 100,121 C100,120.447715 100.447715,120 101,120 Z M181,120 C181.552285,120 182,120.447715 182,121 C182,121.552285 181.552285,122 181,122 C180.447715,122 180,121.552285 180,121 C180,120.447715 180.447715,120 181,120 Z M61,120 C61.5522847,120 62,120.447715 62,121 C62,121.552285 61.5522847,122 61,122 C60.4477153,122 60,121.552285 60,121 C60,120.447715 60.4477153,120 61,120 Z M1,100 C1.55228475,100 2,100.447715 2,101 C2,101.552285 1.55228475,102 1,102 C0.44771525,102 0,101.552285 0,101 C0,100.447715 0.44771525,100 1,100 Z M21,100 C21.5522847,100 22,100.447715 22,101 C22,101.552285 21.5522847,102 21,102 C20.4477153,102 20,101.552285 20,101 C20,100.447715 20.4477153,100 21,100 Z M41,100 C41.5522847,100 42,100.447715 42,101 C42,101.552285 41.5522847,102 41,102 C40.4477153,102 40,101.552285 40,101 C40,100.447715 40.4477153,100 41,100 Z M61,100 C61.5522847,100 62,100.447715 62,101 C62,101.552285 61.5522847,102 61,102 C60.4477153,102 60,101.552285 60,101 C60,100.447715 60.4477153,100 61,100 Z M81,100 C81.5522847,100 82,100.447715 82,101 C82,101.552285 81.5522847,102 81,102 C80.4477153,102 80,101.552285 80,101 C80,100.447715 80.4477153,100 81,100 Z M101,100 C101.552285,100 102,100.447715 102,101 C102,101.552285 101.552285,102 101,102 C100.447715,102 100,101.552285 100,101 C100,100.447715 100.447715,100 101,100 Z M121,100 C121.552285,100 122,100.447715 122,101 C122,101.552285 121.552285,102 121,102 C120.447715,102 120,101.552285 120,101 C120,100.447715 120.447715,100 121,100 Z M141,100 C141.552285,100 142,100.447715 142,101 C142,101.552285 141.552285,102 141,102 C140.447715,102 140,101.552285 140,101 C140,100.447715 140.447715,100 141,100 Z M161,100 C161.552285,100 162,100.447715 162,101 C162,101.552285 161.552285,102 161,102 C160.447715,102 160,101.552285 160,101 C160,100.447715 160.447715,100 161,100 Z M181,100 C181.552285,100 182,100.447715 182,101 C182,101.552285 181.552285,102 181,102 C180.447715,102 180,101.552285 180,101 C180,100.447715 180.447715,100 181,100 Z M81,80 C81.5522847,80 82,80.4477153 82,81 C82,81.5522847 81.5522847,82 81,82 C80.4477153,82 80,81.5522847 80,81 C80,80.4477153 80.4477153,80 81,80 Z M141,80 C141.552285,80 142,80.4477153 142,81 C142,81.5522847 141.552285,82 141,82 C140.447715,82 140,81.5522847 140,81 C140,80.4477153 140.447715,80 141,80 Z M101,80 C101.552285,80 102,80.4477153 102,81 C102,81.5522847 101.552285,82 101,82 C100.447715,82 100,81.5522847 100,81 C100,80.4477153 100.447715,80 101,80 Z M121,80 C121.552285,80 122,80.4477153 122,81 C122,81.5522847 121.552285,82 121,82 C120.447715,82 120,81.5522847 120,81 C120,80.4477153 120.447715,80 121,80 Z M181,80 C181.552285,80 182,80.4477153 182,81 C182,81.5522847 181.552285,82 181,82 C180.447715,82 180,81.5522847 180,81 C180,80.4477153 180.447715,80 181,80 Z M1,80 C1.55228475,80 2,80.4477153 2,81 C2,81.5522847 1.55228475,82 1,82 C0.44771525,82 0,81.5522847 0,81 C0,80.4477153 0.44771525,80 1,80 Z M21,80 C21.5522847,80 22,80.4477153 22,81 C22,81.5522847 21.5522847,82 21,82 C20.4477153,82 20,81.5522847 20,81 C20,80.4477153 20.4477153,80 21,80 Z M41,80 C41.5522847,80 42,80.4477153 42,81 C42,81.5522847 41.5522847,82 41,82 C40.4477153,82 40,81.5522847 40,81 C40,80.4477153 40.4477153,80 41,80 Z M161,80 C161.552285,80 162,80.4477153 162,81 C162,81.5522847 161.552285,82 161,82 C160.447715,82 160,81.5522847 160,81 C160,80.4477153 160.447715,80 161,80 Z M61,80 C61.5522847,80 62,80.4477153 62,81 C62,81.5522847 61.5522847,82 61,82 C60.4477153,82 60,81.5522847 60,81 C60,80.4477153 60.4477153,80 61,80 Z M21,60 C21.5522847,60 22,60.4477153 22,61 C22,61.5522847 21.5522847,62 21,62 C20.4477153,62 20,61.5522847 20,61 C20,60.4477153 20.4477153,60 21,60 Z M81,60 C81.5522847,60 82,60.4477153 82,61 C82,61.5522847 81.5522847,62 81,62 C80.4477153,62 80,61.5522847 80,61 C80,60.4477153 80.4477153,60 81,60 Z M41,60 C41.5522847,60 42,60.4477153 42,61 C42,61.5522847 41.5522847,62 41,62 C40.4477153,62 40,61.5522847 40,61 C40,60.4477153 40.4477153,60 41,60 Z M1,60 C1.55228475,60 2,60.4477153 2,61 C2,61.5522847 1.55228475,62 1,62 C0.44771525,62 0,61.5522847 0,61 C0,60.4477153 0.44771525,60 1,60 Z M61,60 C61.5522847,60 62,60.4477153 62,61 C62,61.5522847 61.5522847,62 61,62 C60.4477153,62 60,61.5522847 60,61 C60,60.4477153 60.4477153,60 61,60 Z M101,60 C101.552285,60 102,60.4477153 102,61 C102,61.5522847 101.552285,62 101,62 C100.447715,62 100,61.5522847 100,61 C100,60.4477153 100.447715,60 101,60 Z M121,60 C121.552285,60 122,60.4477153 122,61 C122,61.5522847 121.552285,62 121,62 C120.447715,62 120,61.5522847 120,61 C120,60.4477153 120.447715,60 121,60 Z M141,60 C141.552285,60 142,60.4477153 142,61 C142,61.5522847 141.552285,62 141,62 C140.447715,62 140,61.5522847 140,61 C140,60.4477153 140.447715,60 141,60 Z M161,60 C161.552285,60 162,60.4477153 162,61 C162,61.5522847 161.552285,62 161,62 C160.447715,62 160,61.5522847 160,61 C160,60.4477153 160.447715,60 161,60 Z M181,60 C181.552285,60 182,60.4477153 182,61 C182,61.5522847 181.552285,62 181,62 C180.447715,62 180,61.5522847 180,61 C180,60.4477153 180.447715,60 181,60 Z M41,40 C41.5522847,40 42,40.4477153 42,41 C42,41.5522847 41.5522847,42 41,42 C40.4477153,42 40,41.5522847 40,41 C40,40.4477153 40.4477153,40 41,40 Z M1,40 C1.55228475,40 2,40.4477153 2,41 C2,41.5522847 1.55228475,42 1,42 C0.44771525,42 0,41.5522847 0,41 C0,40.4477153 0.44771525,40 1,40 Z M81,40 C81.5522847,40 82,40.4477153 82,41 C82,41.5522847 81.5522847,42 81,42 C80.4477153,42 80,41.5522847 80,41 C80,40.4477153 80.4477153,40 81,40 Z M61,40 C61.5522847,40 62,40.4477153 62,41 C62,41.5522847 61.5522847,42 61,42 C60.4477153,42 60,41.5522847 60,41 C60,40.4477153 60.4477153,40 61,40 Z M21,40 C21.5522847,40 22,40.4477153 22,41 C22,41.5522847 21.5522847,42 21,42 C20.4477153,42 20,41.5522847 20,41 C20,40.4477153 20.4477153,40 21,40 Z M101,40 C101.552285,40 102,40.4477153 102,41 C102,41.5522847 101.552285,42 101,42 C100.447715,42 100,41.5522847 100,41 C100,40.4477153 100.447715,40 101,40 Z M121,40 C121.552285,40 122,40.4477153 122,41 C122,41.5522847 121.552285,42 121,42 C120.447715,42 120,41.5522847 120,41 C120,40.4477153 120.447715,40 121,40 Z M141,40 C141.552285,40 142,40.4477153 142,41 C142,41.5522847 141.552285,42 141,42 C140.447715,42 140,41.5522847 140,41 C140,40.4477153 140.447715,40 141,40 Z M161,40 C161.552285,40 162,40.4477153 162,41 C162,41.5522847 161.552285,42 161,42 C160.447715,42 160,41.5522847 160,41 C160,40.4477153 160.447715,40 161,40 Z M181,40 C181.552285,40 182,40.4477153 182,41 C182,41.5522847 181.552285,42 181,42 C180.447715,42 180,41.5522847 180,41 C180,40.4477153 180.447715,40 181,40 Z M161,20 C161.552285,20 162,20.4477153 162,21 C162,21.5522847 161.552285,22 161,22 C160.447715,22 160,21.5522847 160,21 C160,20.4477153 160.447715,20 161,20 Z M41,20 C41.5522847,20 42,20.4477153 42,21 C42,21.5522847 41.5522847,22 41,22 C40.4477153,22 40,21.5522847 40,21 C40,20.4477153 40.4477153,20 41,20 Z M121,20 C121.552285,20 122,20.4477153 122,21 C122,21.5522847 121.552285,22 121,22 C120.447715,22 120,21.5522847 120,21 C120,20.4477153 120.447715,20 121,20 Z M21,20 C21.5522847,20 22,20.4477153 22,21 C22,21.5522847 21.5522847,22 21,22 C20.4477153,22 20,21.5522847 20,21 C20,20.4477153 20.4477153,20 21,20 Z M1,20 C1.55228475,20 2,20.4477153 2,21 C2,21.5522847 1.55228475,22 1,22 C0.44771525,22 0,21.5522847 0,21 C0,20.4477153 0.44771525,20 1,20 Z M81,20 C81.5522847,20 82,20.4477153 82,21 C82,21.5522847 81.5522847,22 81,22 C80.4477153,22 80,21.5522847 80,21 C80,20.4477153 80.4477153,20 81,20 Z M101,20 C101.552285,20 102,20.4477153 102,21 C102,21.5522847 101.552285,22 101,22 C100.447715,22 100,21.5522847 100,21 C100,20.4477153 100.447715,20 101,20 Z M141,20 C141.552285,20 142,20.4477153 142,21 C142,21.5522847 141.552285,22 141,22 C140.447715,22 140,21.5522847 140,21 C140,20.4477153 140.447715,20 141,20 Z M61,20 C61.5522847,20 62,20.4477153 62,21 C62,21.5522847 61.5522847,22 61,22 C60.4477153,22 60,21.5522847 60,21 C60,20.4477153 60.4477153,20 61,20 Z M181,20 C181.552285,20 182,20.4477153 182,21 C182,21.5522847 181.552285,22 181,22 C180.447715,22 180,21.5522847 180,21 C180,20.4477153 180.447715,20 181,20 Z M21,0 C21.5522847,0 22,0.44771525 22,1 C22,1.55228475 21.5522847,2 21,2 C20.4477153,2 20,1.55228475 20,1 C20,0.44771525 20.4477153,0 21,0 Z M1,0 C1.55228475,0 2,0.44771525 2,1 C2,1.55228475 1.55228475,2 1,2 C0.44771525,2 0,1.55228475 0,1 C0,0.44771525 0.44771525,0 1,0 Z M41,0 C41.5522847,0 42,0.44771525 42,1 C42,1.55228475 41.5522847,2 41,2 C40.4477153,2 40,1.55228475 40,1 C40,0.44771525 40.4477153,0 41,0 Z M121,0 C121.552285,0 122,0.44771525 122,1 C122,1.55228475 121.552285,2 121,2 C120.447715,2 120,1.55228475 120,1 C120,0.44771525 120.447715,0 121,0 Z M61,0 C61.5522847,0 62,0.44771525 62,1 C62,1.55228475 61.5522847,2 61,2 C60.4477153,2 60,1.55228475 60,1 C60,0.44771525 60.4477153,0 61,0 Z M81,0 C81.5522847,0 82,0.44771525 82,1 C82,1.55228475 81.5522847,2 81,2 C80.4477153,2 80,1.55228475 80,1 C80,0.44771525 80.4477153,0 81,0 Z M141,0 C141.552285,0 142,0.44771525 142,1 C142,1.55228475 141.552285,2 141,2 C140.447715,2 140,1.55228475 140,1 C140,0.44771525 140.447715,0 141,0 Z M101,0 C101.552285,0 102,0.44771525 102,1 C102,1.55228475 101.552285,2 101,2 C100.447715,2 100,1.55228475 100,1 C100,0.44771525 100.447715,0 101,0 Z M161,0 C161.552285,0 162,0.44771525 162,1 C162,1.55228475 161.552285,2 161,2 C160.447715,2 160,1.55228475 160,1 C160,0.44771525 160.447715,0 161,0 Z M181,0 C181.552285,0 182,0.44771525 182,1 C182,1.55228475 181.552285,2 181,2 C180.447715,2 180,1.55228475 180,1 C180,0.44771525 180.447715,0 181,0 Z" id="path-1"></path>
        <linearGradient x1="50%" y1="0%" x2="50%" y2="100%" id="linearGradient-3">
            <stop stop-color="#FCAAAA" offset="0%"></stop>
            <stop stop-color="#F87171" offset="100%"></stop>
        </linearGradient>
    </defs>
    <g id="Graphical/Dots" stroke="none" stroke-width="1" fill="none" fill-rule="evenodd">
        <mask id="mask-2" fill="white">
            <use xlink:href="#path-1"></use>
        </mask>
        <use id="Combined-Shape" fill="#4C6FEA" xlink:href="#path-1"></use>
        <rect id="Rectangle" fill="url(#linearGradient-3)" fill-rule="nonzero" mask="url(#mask-2)" x="0" y="0" width="184" height="184"></rect>
    </g>
</svg>