<?xml version="1.0" encoding="UTF-8"?>
<svg width="21px" height="17px" viewBox="0 0 21 17" version="1.1" xmlns="http://www.w3.org/2000/svg" xmlns:xlink="http://www.w3.org/1999/xlink">
    <title></title>
    <defs>
        <linearGradient x1="50%" y1="0%" x2="50%" y2="100%" id="linearGradient-1">
            <stop stop-color="#FCAAAA" offset="0%"></stop>
            <stop stop-color="#F87171" offset="100%"></stop>
        </linearGradient>
    </defs>
    <g id="Styleguide-Symbols" stroke="none" stroke-width="1" fill="none" fill-rule="evenodd">
        <g id="Elements/Logos/HealthLine" transform="translate(0.000000, -3.000000)" fill="url(#linearGradient-1)" fill-rule="nonzero">
            <g id="Group-3">
                <path d="M12.8782328,19.7068966 C13.081268,19.7068966 13.266175,19.6525121 13.4329539,19.5437433 C13.5997328,19.4349744 13.7266298,19.2935749 13.8136449,19.1195447 L17.0114494,12.7456897 L19.143319,12.7456897 C19.4333693,12.7456897 19.679912,12.6441721 19.8829472,12.4411369 C20.0859824,12.2381017 20.1875,11.9915589 20.1875,11.7015086 C20.1875,11.4114583 20.0859824,11.1649156 19.8829472,10.9618804 C19.679912,10.7588452 19.4333693,10.6573276 19.143319,10.6573276 L16.3588362,10.6573276 C16.155801,10.6573276 15.9708939,10.711712 15.804115,10.8204809 C15.6373361,10.9292497 15.5104391,11.0706492 15.423424,11.2446794 L13.0087554,16.0740167 L8.28818696,3.67436692 C8.21567439,3.47133172 8.08877739,3.30817843 7.90749596,3.18490706 C7.72621453,3.06163569 7.52680496,3 7.30926724,3 C7.10623204,3 6.91769935,3.05801006 6.74366918,3.17403017 C6.56963901,3.29005029 6.43911638,3.43507543 6.35210129,3.6091056 L3.15429688,10.6573276 L1.04418103,10.6573276 C0.754130747,10.6573276 0.507588003,10.7588452 0.304552802,10.9618804 C0.101517601,11.1649156 0,11.4114583 0,11.7015086 C0,11.9915589 0.101517601,12.2381017 0.304552802,12.4411369 C0.507588003,12.6441721 0.754130747,12.7456897 1.04418103,12.7456897 L3.82866379,12.7456897 L3.97822097,12.7348128 C4.12505893,12.713059 4.26373922,12.6586746 4.39426185,12.5716595 C4.56829203,12.4556394 4.69881466,12.3106142 4.78582974,12.1365841 L7.22225216,6.76340248 L11.899313,19.0325296 C11.9718256,19.2210623 12.0914714,19.3769643 12.2582503,19.5002357 C12.4250292,19.6235071 12.6171875,19.692394 12.8347252,19.7068966 L12.8782328,19.7068966 Z" id=""></path>
            </g>
        </g>
    </g>
</svg>